<svg xmlns="http://www.w3.org/2000/svg" viewBox="0 0 64 64" style="enable-background:new 0 0 64 64" xml:space="preserve"><path style="fill:#abd8c7" d="M34.47 51.702a2.47 2.47 0 0 1-4.938 0 2.471 2.471 0 0 1 2.467-2.467 2.472 2.472 0 0 1 2.471 2.467zM41.023 14.766c-.757-.502-1.896-1.78-2.321-4.973a.766.766 0 0 0-.753-.66.767.767 0 0 0-.444.143c-2.259 1.629-7.838-.251-9.796-1.116a.757.757 0 0 0-.934.27l-4.158 6.132-.228.12c-.274-2.035-.579-6.749 1.803-9.916 1.46-1.942 3.742-3.023 6.773-3.213 3.456-.216 6.078.656 7.78 2.595 2.799 3.189 2.525 8.49 2.278 10.618z"/><path style="fill:#9ac1b1" d="M39.267 3.61C37.375 1.41 34.461.42 30.62.666c-3.369.215-5.905 1.441-7.527 3.645a9.17 9.17 0 0 0-.591.93c1.616-1.686 3.909-2.636 6.831-2.822 3.841-.245 6.755.745 8.647 2.944 2.192 2.549 2.686 6.284 2.692 9.115.392.585.793.954 1.127 1.181.275-2.416.579-8.431-2.532-12.049z"/><path style="fill:#abd8c7" d="M56.715 57.112a5.703 5.703 0 0 1-4.699 2.162l-1.039-.1v-8.008h2.155v-1.521h-2.155v-7.201a3.039 3.039 0 0 0-3.035-3.039H16.06a3.042 3.042 0 0 0-3.039 3.039v7.201H11.33v1.521h1.691v7.954l-1.031.15c-1.85.073-3.552-.718-4.703-2.158a5.708 5.708 0 0 1-1.066-5.097L10.4 36.481a8.505 8.505 0 0 1 4.753-5.576l9.027-4.054c.147 4.186 3.599 7.545 7.819 7.545 4.224 0 7.676-3.359 7.823-7.545l9.027 4.054a8.495 8.495 0 0 1 4.749 5.576l4.182 15.534a5.705 5.705 0 0 1-1.065 5.097z"/><path style="fill:#9ac1b1" d="m58.553 52.015-4.182-15.534a8.5 8.5 0 0 0-4.749-5.576l-10.186-4.827a7.826 7.826 0 0 1-.136 1.153l7.619 3.674a8.495 8.495 0 0 1 4.749 5.576l4.182 15.534c.483 1.792.093 4.035-1.066 5.483a5.722 5.722 0 0 1-3.035 1.972v.09l1.039.1c1.815.069 3.541-1.1 4.699-2.548a5.709 5.709 0 0 0 1.066-5.097zM5.524 52.015l4.182-15.534a8.5 8.5 0 0 1 4.749-5.576l10.186-4.827c.014.393.066.776.136 1.153l-7.619 3.674a8.495 8.495 0 0 0-4.749 5.576L8.227 52.015c-.483 1.792-.093 4.035 1.066 5.483a5.722 5.722 0 0 0 3.035 1.972v.09l-1.039.1c-1.815.069-3.541-1.1-4.699-2.548a5.703 5.703 0 0 1-1.066-5.097z"/><path style="fill:#47705d" d="M31.999 47.713c-2.197 0-3.985 1.792-3.985 3.989s1.788 3.989 3.985 3.989c2.201 0 3.989-1.792 3.989-3.989s-1.788-3.989-3.989-3.989zm0 6.456a2.469 2.469 0 0 1-2.467-2.467 2.471 2.471 0 0 1 2.467-2.467 2.472 2.472 0 0 1 2.471 2.467 2.47 2.47 0 0 1-2.471 2.467zm0-6.456c-2.197 0-3.985 1.792-3.985 3.989s1.788 3.989 3.985 3.989c2.201 0 3.989-1.792 3.989-3.989s-1.788-3.989-3.989-3.989zm0 6.456a2.469 2.469 0 0 1-2.467-2.467 2.471 2.471 0 0 1 2.467-2.467 2.472 2.472 0 0 1 2.471 2.467 2.47 2.47 0 0 1-2.471 2.467zm0-6.456c-2.197 0-3.985 1.792-3.985 3.989s1.788 3.989 3.985 3.989c2.201 0 3.989-1.792 3.989-3.989s-1.788-3.989-3.989-3.989zm0 6.456a2.469 2.469 0 0 1-2.467-2.467 2.471 2.471 0 0 1 2.467-2.467 2.472 2.472 0 0 1 2.471 2.467 2.47 2.47 0 0 1-2.471 2.467zm0-6.456c-2.197 0-3.985 1.792-3.985 3.989s1.788 3.989 3.985 3.989c2.201 0 3.989-1.792 3.989-3.989s-1.788-3.989-3.989-3.989zm0 6.456a2.469 2.469 0 0 1-2.467-2.467 2.471 2.471 0 0 1 2.467-2.467 2.472 2.472 0 0 1 2.471 2.467 2.47 2.47 0 0 1-2.471 2.467zm27.249-2.548-4.182-15.534a10.022 10.022 0 0 0-5.595-6.568l-9.896-4.44c1.73-2.409 2.803-5.626 2.819-9.167.158-.88 1.375-8.336-2.506-12.761C37.861.838 34.826-.212 30.872.035c-3.502.22-6.159 1.506-7.896 3.823-3.518 4.684-1.969 11.846-1.904 12.147.05.232.208.425.421.525.027.012.05.019.073.027.135 3.297 1.185 6.278 2.815 8.541l-9.85 4.421a10.041 10.041 0 0 0-5.599 6.568L4.755 51.621a7.199 7.199 0 0 0 1.348 6.441 7.21 7.21 0 0 0 5.989 2.726c.027 0 .054-.004.081-.008l.849-.127v.309a3.042 3.042 0 0 0 3.039 3.039h31.882a3.039 3.039 0 0 0 3.035-3.039v-.266l.931.093c.108.004.212.008.32.008 2.22 0 4.274-.985 5.672-2.734a7.228 7.228 0 0 0 1.347-6.442zm-36.859-36.94c-.274-2.035-.579-6.749 1.803-9.916 1.46-1.942 3.742-3.023 6.773-3.213 3.456-.216 6.078.656 7.78 2.595 2.799 3.189 2.525 8.491 2.278 10.618-.757-.502-1.896-1.78-2.321-4.973a.766.766 0 0 0-.753-.66.767.767 0 0 0-.444.143c-2.259 1.629-7.838-.251-9.796-1.116a.757.757 0 0 0-.934.27l-4.158 6.132-.228.12zm.683 1.355.421-.22a.764.764 0 0 0 .274-.247l3.915-5.773c1.749.703 6.583 2.417 9.692 1.251.749 3.684 2.514 4.931 3.491 5.344-.212 6.383-4.12 11.483-8.892 11.483-4.862.001-8.824-5.293-8.901-11.838zm15.236 10.541a6.314 6.314 0 0 1-6.309 6.301c-3.456 0-6.267-2.792-6.305-6.24 1.749 1.722 3.923 2.757 6.278 2.757 2.386.001 4.58-1.057 6.336-2.818zM49.46 60.961a1.52 1.52 0 0 1-1.517 1.521H16.06a1.524 1.524 0 0 1-1.521-1.521V42.443c0-.838.683-1.521 1.521-1.521h31.882a1.52 1.52 0 0 1 1.517 1.521v18.518zm7.255-3.849a5.703 5.703 0 0 1-4.699 2.162l-1.039-.1v-8.008h2.155v-1.521h-2.155v-7.201a3.039 3.039 0 0 0-3.035-3.039H16.06a3.042 3.042 0 0 0-3.039 3.039v7.201H11.33v1.521h1.691v7.954l-1.031.15c-1.85.073-3.552-.718-4.703-2.158a5.708 5.708 0 0 1-1.066-5.097L10.4 36.481a8.505 8.505 0 0 1 4.753-5.576l9.027-4.054c.147 4.186 3.599 7.545 7.819 7.545 4.224 0 7.676-3.359 7.823-7.545l9.027 4.054a8.495 8.495 0 0 1 4.749 5.576l4.182 15.534a5.705 5.705 0 0 1-1.065 5.097zm-24.716-9.399c-2.197 0-3.985 1.792-3.985 3.989s1.788 3.989 3.985 3.989c2.201 0 3.989-1.792 3.989-3.989s-1.788-3.989-3.989-3.989zm0 6.456a2.469 2.469 0 0 1-2.467-2.467 2.471 2.471 0 0 1 2.467-2.467 2.472 2.472 0 0 1 2.471 2.467 2.47 2.47 0 0 1-2.471 2.467zm0-6.456c-2.197 0-3.985 1.792-3.985 3.989s1.788 3.989 3.985 3.989c2.201 0 3.989-1.792 3.989-3.989s-1.788-3.989-3.989-3.989zm0 6.456a2.469 2.469 0 0 1-2.467-2.467 2.471 2.471 0 0 1 2.467-2.467 2.472 2.472 0 0 1 2.471 2.467 2.47 2.47 0 0 1-2.471 2.467zm0-6.456c-2.197 0-3.985 1.792-3.985 3.989s1.788 3.989 3.985 3.989c2.201 0 3.989-1.792 3.989-3.989s-1.788-3.989-3.989-3.989zm0 6.456a2.469 2.469 0 0 1-2.467-2.467 2.471 2.471 0 0 1 2.467-2.467 2.472 2.472 0 0 1 2.471 2.467 2.47 2.47 0 0 1-2.471 2.467z"/></svg>