<?xml version="1.0" standalone="no"?>
<!DOCTYPE svg PUBLIC "-//W3C//DTD SVG 1.0//EN" "http://www.w3.org/TR/2001/REC-SVG-20010904/DTD/svg10.dtd">
<svg xmlns="http://www.w3.org/2000/svg" xmlns:xlink="http://www.w3.org/1999/xlink" id="body_1" width="48" height="48">

<g transform="matrix(0.1875 0 0 0.1875 0 0)">
	<g>
        <path d="M250.13 84.48L250.13 245.99402L5.87 245.99402L5.87 20.62L40.167 20.62L40.167 52.670998C 40.167 55.432423 42.405575 57.670998 45.167 57.670998L45.167 57.670998L128.12799 57.670998C 130.88942 57.670998 133.12799 55.432423 133.12799 52.670998L133.12799 52.670998L133.12799 20.62L186.249 20.62L250.12999 84.48L250.13 84.48z" stroke="none" fill="#72C1E8" fill-rule="nonzero" />
        <path d="M18.75 235.23C 17.369287 235.23 16.25 234.1107 16.25 232.73L16.25 232.73L16.25 228.317C 16.25 227.42384 16.726498 226.59853 17.5 226.15193C 18.273502 225.70535 19.226498 225.70535 20 226.15193C 20.773502 226.59853 21.25 227.42384 21.25 228.317L21.25 228.317L21.25 232.73C 21.25 234.1107 20.130713 235.23 18.75 235.23zM18.75 220.817C 17.369287 220.817 16.25 219.69771 16.25 218.317L16.25 218.317L16.25 39.317C 16.25 38.423836 16.726498 37.59852 17.5 37.15194C 18.273502 36.705357 19.226498 36.705357 20 37.15194C 20.773502 37.59852 21.25 38.423836 21.25 39.317L21.25 39.317L21.25 218.317C 21.25 219.69771 20.130713 220.817 18.75 220.817z" stroke="none" fill="#C5E5FF" fill-rule="nonzero" />
        <path d="M45.167 10.005C 42.405575 10.005 40.167 12.243576 40.167 15.005L40.167 15.005L40.167 52.671C 40.167 55.432426 42.405575 57.671 45.167 57.671L45.167 57.671L128.12799 57.671C 130.88942 57.671 133.12799 55.432426 133.12799 52.671L133.12799 52.671L133.12799 15.005C 133.12799 12.243576 130.88942 10.005 128.12799 10.005L128.12799 10.005L45.167 10.005zM47.257 204.505L208.743 204.505L208.743 246.005L47.257 246.005z" stroke="none" fill="#F0C020" fill-rule="nonzero" />
        <path d="M235.604 227.04C 234.2233 227.04 233.104 225.9207 233.104 224.54L233.104 224.54L233.104 93.486L191.43 51.824C 190.96082 51.355446 190.69719 50.719578 190.69719 50.056503C 190.69719 49.39343 190.96082 48.75756 191.43 48.289C 191.89854 47.81983 192.53442 47.556202 193.1975 47.556202C 193.86057 47.556202 194.49644 47.81983 194.965 48.289L194.965 48.289L237.371 90.683C 237.84 91.152 238.103 91.786995 238.103 92.451L238.103 92.451L238.103 224.54099C 238.103 225.92114 236.98416 227.03998 235.604 227.03998L235.604 227.03998L235.604 227.04zM184.357 44.755L180.114 40.513C 179.64482 40.04444 179.3812 39.408573 179.3812 38.7455C 179.3812 38.082424 179.64482 37.446556 180.114 36.978C 180.58255 36.50883 181.21843 36.2452 181.8815 36.2452C 182.54457 36.2452 183.18045 36.50883 183.649 36.978L183.649 36.978L187.892 41.22C 188.52347 41.85147 188.77008 42.771854 188.53894 43.634453C 188.30782 44.497055 187.63405 45.170822 186.77144 45.401955C 185.90884 45.633087 184.98846 45.38647 184.357 44.755z" stroke="none" fill="#C5E5FF" fill-rule="nonzero" />
        <path d="M107.272 20.62L119.880005 20.62L119.880005 47.056L107.272 47.056L107.272 20.62z" stroke="none" fill="#AFAFAF" fill-rule="nonzero" />
	</g>
</g>
</svg>